# xmcd CD database file
#
# Track frame offsets:
#	150
#	34349
#	75991
#	108816
#	142921
#	173850
#	211471
#	243772
#
# Disc length: 3647 seconds
#
# Revision: 0
# Processed by: cddbd v1.5.1PL2 Copyright (c) Steve Scherf et al.
# Submitted via: CDex 1.51
#
DISCID=5c0e3d08
DTITLE=Plínio Oliveira - ILLUMINATI
DYEAR=1900
DGENRE=New Age
TTITLE0=A Origem
TTITLE1=Nut e Gueb
TTITLE2=O Rio Nilo
TTITLE3=O Egito
TTITLE4=Akhenaton
TTITLE5=Tothmea
TTITLE6=O Julgamento do Faraó
TTITLE7=Illuminati
EXTD=
EXTT0=
EXTT1=
EXTT2=
EXTT3=
EXTT4=
EXTT5=
EXTT6=
EXTT7=
PLAYORDER=
